<?xml version="1.0" encoding="UTF-8"?>
<svg id="Layer_2" data-name="Layer 2" xmlns="http://www.w3.org/2000/svg" xmlns:xlink="http://www.w3.org/1999/xlink" viewBox="0 0 720.41 185.97">
  <defs>
    <style>
      .cls-1 {
        fill: url(#linear-gradient-2);
      }

      .cls-2 {
        fill: url(#linear-gradient);
      }
    </style>
    <linearGradient id="linear-gradient" x1="0" y1="84.16" x2="54.76" y2="84.16" gradientUnits="userSpaceOnUse">
      <stop offset="0" stop-color="#8c56ff"/>
      <stop offset="1" stop-color="#644cff"/>
    </linearGradient>
    <linearGradient id="linear-gradient-2" x1="373.78" y1="15.44" x2="404.18" y2="15.44" xlink:href="#linear-gradient"/>
  </defs>
  <g id="Layer_1-2" data-name="Layer 1">
    <g>
      <path d="M655.46,150.32h25.16c2.87,0,4.83-2.88,3.79-5.55l-48.74-124.23c-.61-1.56-2.12-2.59-3.79-2.59h-21.08c-1.67,0-3.17,1.02-3.79,2.57l-49.26,124.2c-1.06,2.68,.91,5.59,3.79,5.59h24.55s8.8-24,8.8-24h51.88l8.68,24Zm-51.76-48l17.32-47.21,17.08,47.21h-34.4Z"/>
      <path d="M690.98,146.24V22.03c0-2.25,1.83-4.08,4.08-4.08h21.28c2.25,0,4.08,1.83,4.08,4.08v124.21c0,2.25-1.83,4.08-4.08,4.08h-21.28c-2.25,0-4.08-1.83-4.08-4.08Z"/>
      <path d="M533.38,149.74c-5.08,0-9.32-1.76-12.71-5.28-3.39-3.52-5.08-7.75-5.08-12.71,0-5.21,1.69-9.54,5.08-13,3.39-3.45,7.62-5.18,12.71-5.18s9.48,1.73,12.8,5.18c3.32,3.45,4.98,7.79,4.98,13s-1.66,9.19-4.98,12.71-7.59,5.28-12.8,5.28Z"/>
      <g>
        <polygon class="cls-2" points="54.76 17.98 54.76 150.35 25.49 150.35 25.49 42.9 0 42.9 0 17.98 54.76 17.98"/>
        <path class="cls-1" d="M389.06,30.88c-4.39,0-8.08-1.53-10.97-4.54-2.86-2.98-4.32-6.65-4.32-10.9s1.46-8.06,4.33-11c2.88-2.95,6.57-4.44,10.95-4.44s8.05,1.5,10.89,4.46c2.81,2.93,4.24,6.63,4.24,10.98s-1.42,7.9-4.22,10.88c-2.84,3.02-6.51,4.55-10.9,4.55Z"/>
        <g>
          <path d="M240.02,57.98c-5.59-3.07-12.11-4.59-19.55-4.59s-13.74,1.52-19.36,4.59c-2.28,1.25-4.37,2.71-6.24,4.43V12.43c0-2.2-1.79-3.99-3.99-3.99h-21.94c-2.2,0-3.99,1.79-3.99,3.99V146.36c0,2.2,1.79,3.99,3.99,3.99h21.94c2.2,0,3.99-1.79,3.99-3.99v-50.14c0-3.26,.71-6.16,2.14-8.71,1.44-2.53,3.39-4.48,5.86-5.86,2.47-1.36,5.35-2.04,8.61-2.04,4.7,0,8.58,1.52,11.62,4.59,3.07,3.07,4.61,7.06,4.61,12.03v50.14c0,2.2,1.79,3.99,3.99,3.99h21.91c2.2,0,3.99-1.79,3.99-3.99v-56.8c0-7.17-1.52-13.47-4.59-18.87-3.07-5.4-7.39-9.64-13-12.71Z"/>
          <path d="M146.81,119.32c-1.5-1.52-3.87-1.55-5.53-.21-1.56,1.26-3.29,2.31-5.17,3.16-3.06,1.37-6.55,2.05-10.46,2.05-4.17,0-7.95-.98-11.34-2.93-3.39-1.95-6.03-4.62-7.92-8.01-1.89-3.39-2.83-7.3-2.83-11.73s.94-8.31,2.83-11.63c1.89-3.32,4.5-5.93,7.82-7.82,3.32-1.89,7.13-2.83,11.44-2.83,3.78,0,7.13,.59,10.07,1.76,1.8,.72,3.47,1.69,5,2.9,1.66,1.32,4,1.29,5.5-.21l13.46-13.46c1.65-1.65,1.57-4.36-.17-5.92-4.05-3.61-8.53-6.43-13.43-8.44-6.19-2.54-13-3.81-20.43-3.81-9.91,0-18.83,2.15-26.78,6.45-7.95,4.3-14.24,10.2-18.86,17.69-4.63,7.5-6.94,16-6.94,25.51s2.28,17.86,6.84,25.41c4.56,7.56,10.81,13.49,18.77,17.79,7.95,4.3,16.81,6.45,26.58,6.45,7.69,0,14.66-1.34,20.92-4.01,5-2.13,9.59-5.08,13.76-8.85,1.72-1.55,1.8-4.24,.17-5.89l-13.29-13.43Z"/>
          <path d="M501.46,71.81c-1.38-2.58-3.07-4.97-5.08-7.17-12.95-14.2-37.33-14.31-52.18-2.12-.14,.11-.35,.03-.35-.14v-4.13s-.05-5.27-.05-5.54c0-1.17-.11-2.44-.35-3.83-.08-.46-.14-.92-.24-1.41,0-.24-.05-.46-.11-.71-.08-.41-.19-.81-.3-1.22-.11-.43-.19-.87-.33-1.3-.14-.49-.3-1-.46-1.49-.14-.49-.3-.98-.49-1.47-.16-.49-.33-.95-.52-1.44-.24-.62-.52-1.25-.81-1.9-.16-.38-.35-.79-.54-1.17-.41-.84-.84-1.68-1.33-2.5-.19-.35-.43-.71-.65-1.06-.35-.57-.73-1.14-1.14-1.71-.24-.33-.49-.68-.73-1-.49-.62-1-1.19-1.52-1.76-.19-.19-.33-.41-.49-.57h-.03c-4.53-4.59-10.37-7.79-16.62-9.23-.9-.22-1.79-.38-2.69-.52-1.03-.16-2.04-.22-3.04-.3-.24,0-.49-.05-.71-.05l-.03,.03c-.33,5.35-2.28,9.96-5.89,13.82-4.05,4.32-9.26,6.52-15.48,6.52-3.88,0-7.36-.84-10.43-2.52-.05,.11-.11,.22-.16,.3-.41,.76-.79,1.52-1.14,2.28-.22,.52-.43,1.03-.62,1.55-.16,.38-.33,.79-.46,1.19-.19,.57-.41,1.14-.57,1.74-.08,.27-.16,.57-.22,.84-.11,.3-.19,.62-.27,.95-.08,.3-.16,.6-.22,.9-.16,.73-.22,1.49-.33,2.25-.05,.35-.11,.71-.16,1.09-.05,.54-.08,1.09-.11,1.63-.03,.46-.05,.92-.08,1.38,0,.19-.03,.38-.03,.6-.03,1-.03,2.04-.03,3.04v.81c.03,1.3,.03,2.63,.03,3.94v78.76c0,.52,0,1.06,.03,1.6v14.96c-.05,.49-.08,.95-.14,1.44-.22,1.44-.73,3.04-1.82,4.13-.27,.22-.52,.43-.81,.6-.16,.11-.33,.19-.49,.24-.16,.08-.33,.14-.52,.19-.14,.05-.3,.08-.43,.11-.03,.03-.08,.03-.11,.03-.27,.05-.54,.08-.84,.08s-.6,0-.9-.05c-.19-.03-.38-.05-.54-.14s-.35-.14-.52-.22c-2.58-1.33-3.5-4.89-3.56-7.55v-2.88c-.03-.52-.03-1.03-.03-1.52v-.62c-.03-.71-.03-1.44-.03-2.14v-2.9c0-2.42,.03-4.86,.05-7.28,0-2.9,.03-5.78,.03-8.69-.03-11.4-.03-22.83-.03-34.24V59.76c0-.6-.11-1.19-.3-1.74-.11-.38-.27-.71-.49-1.03-.19-.33-.43-.62-.68-.9-.14-.14-.27-.27-.41-.38-.65-.6-1.49-1-2.39-1.19-.35-.08-.71-.11-1.06-.11h-23.73v-.03c-.16,0-.27,.14-.3,.3,0,2.34-.03,4.64-.08,6.98,0,.24-.27,.38-.46,.22-12.49-10.86-32.01-12.11-46.51-4.15-14.71,8.09-23.97,24.54-24.9,41.29-.98,17.73,7.47,36.08,22.48,45.53,14.88,9.39,35.81,8.77,49.2-2.55,.14-.11,.27-.05,.35,.03v.14c0,5.02,.3,10.13,1.25,15.12,.14,.71,.27,1.41,.43,2.12,.14,.52,.22,1.03,.35,1.55,.11,.49,.3,.95,.43,1.44,.14,.49,.3,1,.46,1.49,.24,.73,.52,1.49,.81,2.23,.57,1.44,1.25,2.88,2.04,4.24,.38,.68,.79,1.33,1.25,1.98,.3,.43,.6,.84,.92,1.25,.52,.65,1.06,1.28,1.63,1.85,3.88,4.1,8.91,7.09,14.34,8.82,6.81,2.17,14.31,2.36,21.1,.24,5.65-1.76,10.81-5.02,14.88-9.34,.27-.3,.57-.6,.84-.92,.3-.33,.57-.65,.84-.98,.16-.22,.33-.43,.49-.65,.16-.19,.33-.41,.49-.62v-.03c.62-.87,1.22-1.79,1.79-2.71,.84-1.41,1.57-2.88,2.2-4.37,.41-1,.79-2.04,1.11-3.07,.05-.19,.16-.38,.22-.57v-.05c.81-2.77,1.36-5.57,1.47-8.36,.03-.27,.03-2.82,0-6.95v-46.62c0-25.87,0-51.42,0-51.64,.02-.41,.07-.69,.11-.86,0,0,0,0,0,0,.33-1.87,1.66-3.42,3.39-4.02,.57-.24,1.19-.35,1.85-.35,1.49,0,2.8,.6,3.77,1.57,.95,.95,1.55,2.28,1.55,3.75v34.05c0,8.72,0,17.43-.03,26.15v37.25c.03,.54,.11,1.09,.3,1.57,.14,.38,.27,.71,.46,1.03s.43,.62,.68,.9c.52,.57,1.14,1,1.85,1.3,.27,.11,.57,.19,.87,.24,.03,.03,.08,.05,.14,.05,.33,.05,.68,.11,1.06,.11h19.82c.41,0,.81-.08,1.19-.19,.03-.03,.08-.03,.14-.05,.3-.11,.57-.24,.81-.41,.19-.11,.38-.27,.54-.41,.87-.71,1.41-1.79,1.41-3.01v-46.91c.19-4.62,.84-9.23,3.37-13.06,2.85-4.32,7.96-7.09,13.11-7.06,5.19,0,10.26,2.74,13.09,7.09,3.28,5.02,3.42,11.4,3.42,17.38,.03,15.48,0,30.9-.14,46.34,0,.16,.11,.27,.27,.27,8.69,0,17.35-.03,26.04-.03,2.06,0,3.72-1.71,3.72-3.75-.03-15.42,.05-26.5,.05-40.81,.03-12.27,.16-23.78-5.32-33.91Zm-166.72,37.25c-.05,.14-.11,.27-.14,.43-.03,.03-.03,.05-.03,.08-.95,3.18-2.52,5.97-4.75,8.39-3.91,4.24-9.04,6.35-15.42,6.35-4.05,0-7.71-.98-10.97-2.93-3.26-1.95-5.78-4.62-7.6-8.01-1.85-3.39-2.74-7.22-2.74-11.54s.95-8.34,2.82-11.73c1.9-3.37,4.43-6.03,7.63-7.9,3.18-1.9,6.87-2.85,11.05-2.85s7.85,.95,11.05,2.85c3.18,1.87,5.65,4.53,7.41,7.9,.62,1.25,1.11,2.55,1.52,3.91v.05c.05,.22,.14,.41,.19,.62,.6,2.23,.92,4.59,.92,7.14s-.33,5-.95,7.22Z"/>
        </g>
      </g>
    </g>
  </g>
</svg>