<svg xmlns="http://www.w3.org/2000/svg" width="24" height="24" fill="var(--color-1)" viewBox="0 0 24 24" class="mr-2 transition-all styled-icon-popup--active"><path fill-rule="evenodd" d="m3.061 5 .023.02c.154.132.435.297.869.454C4.813 5.787 6.066 6 7.5 6c1.434 0 2.688-.213 3.547-.526.434-.157.715-.322.869-.454l.023-.02a1.105 1.105 0 0 0-.023-.02c-.154-.132-.435-.297-.869-.454C10.187 4.213 8.934 4 7.5 4c-1.434 0-2.688.213-3.547.526-.434.157-.715.322-.869.454a1.088 1.088 0 0 0-.023.02M12 7.25a7.023 7.023 0 0 1-.27.104C10.6 7.765 9.105 8 7.5 8c-1.604 0-3.1-.235-4.23-.646A7.034 7.034 0 0 1 3 7.25v1.687c.015.018.04.046.084.083.154.132.435.297.869.454.86.313 2.113.526 3.547.526 1.206 0 2.29-.15 3.12-.388.104-.103.212-.196.32-.277A4.774 4.774 0 0 1 12 8.75zm-2 4.548c-.77.131-1.618.202-2.5.202-1.604 0-3.1-.235-4.23-.646A7.118 7.118 0 0 1 3 11.25v1.687c.015.018.04.046.084.083.154.132.435.297.869.454.86.313 2.113.526 3.547.526.925 0 1.778-.089 2.5-.237zm2 2.768V11.063a.81.81 0 0 1 .145-.132c.217-.164.595-.352 1.143-.516A1 1 0 0 0 14 9.457V5c0-.677-.38-1.193-.78-1.537-.403-.346-.928-.613-1.49-.817C10.6 2.235 9.105 2 7.5 2c-1.604 0-3.1.235-4.23.646-.562.204-1.087.47-1.49.817C1.38 3.807 1 4.323 1 5v12c0 .677.38 1.193.78 1.537.403.346.928.613 1.49.817C4.4 19.765 5.895 20 7.5 20c1.408 0 2.727-.18 3.788-.5a1 1 0 0 0 .712-.957zm-2 1.232c-.77.131-1.618.202-2.5.202-1.604 0-3.1-.235-4.23-.646A7.118 7.118 0 0 1 3 15.25v1.687c.015.018.04.046.084.083.154.132.435.297.869.454.86.313 2.113.526 3.547.526.925 0 1.778-.089 2.5-.237z" clip-rule="evenodd" opacity="0.4"></path><path fill-rule="evenodd" d="M12 13.25v1.687c.015.018.04.046.084.083.154.132.435.297.869.454.86.313 2.114.526 3.547.526 1.433 0 2.688-.213 3.547-.526.434-.157.715-.322.869-.454a.679.679 0 0 0 .084-.083V13.25a7.106 7.106 0 0 1-.27.104c-1.13.411-2.626.646-4.23.646-1.604 0-3.1-.235-4.23-.646a7.106 7.106 0 0 1-.27-.104M23 11v8c0 .677-.38 1.193-.78 1.537-.403.346-.928.613-1.49.817-1.13.411-2.626.646-4.23.646-1.604 0-3.1-.235-4.23-.646-.562-.204-1.087-.47-1.49-.817-.4-.344-.78-.86-.78-1.537 0-.079.01-.155.026-.229a1.006 1.006 0 0 1-.026-.228V11c0-.451.167-.83.4-1.136a2.62 2.62 0 0 1 .54-.529c.077-.059.159-.115.244-.17.232-.147.488-.277.757-.39.245-.104.504-.195.771-.276C13.778 8.18 15.098 8 16.5 8c1.604 0 3.1.235 4.23.646.562.204 1.087.47 1.49.817.4.344.78.86.78 1.537m-10.87-.058.014-.01c.218-.165.596-.353 1.144-.517l.003-.001c.836-.25 1.954-.414 3.209-.414 1.433 0 2.688.213 3.547.526.434.157.715.322.869.454l.023.02a1.137 1.137 0 0 1-.023.02c-.154.132-.435.297-.869.454-.86.313-2.114.526-3.547.526-1.434 0-2.688-.213-3.547-.526-.434-.157-.715-.322-.869-.454a1.137 1.137 0 0 1-.023-.02 1.137 1.137 0 0 1 .07-.058M12 17.25v1.293c0 .079-.01.155-.026.228.012.053.02.107.024.163.014.018.04.047.086.086.154.132.435.297.869.454.86.313 2.114.526 3.547.526 1.433 0 2.688-.213 3.547-.526.434-.157.715-.322.869-.454a.679.679 0 0 0 .084-.083V17.25a7.106 7.106 0 0 1-.27.104c-1.13.411-2.626.646-4.23.646-1.604 0-3.1-.235-4.23-.646a7.106 7.106 0 0 1-.27-.104" clip-rule="evenodd"></path></svg>