<svg width="24" height="24" viewBox="0 0 24 24" fill="none" xmlns="http://www.w3.org/2000/svg">
<path d="M20.1405 9.40632C19.9064 8.81744 19.3454 8.43689 18.7121 8.43689H16.5536V3.79697C16.5536 2.94408 15.8595 2.25 15.0066 2.25H8.8187C7.9658 2.25 7.27173 2.94408 7.27173 3.79697V8.43789H5.28841C4.65518 8.43789 4.09414 8.81845 3.86003 9.40733C3.62592 9.99621 3.77245 10.6573 4.23242 11.0915L10.7028 17.2051C11.0669 17.5485 11.5331 17.7197 11.9993 17.7197C12.4654 17.7197 12.9317 17.5475 13.2957 17.2051L19.7651 11.0915C20.2282 10.6562 20.3736 9.99521 20.1405 9.40632ZM19.0586 10.3406L12.5882 16.4543C12.2602 16.7658 11.7423 16.7658 11.4134 16.4543L4.94195 10.3406C4.71094 10.122 4.79043 9.86109 4.82034 9.78684C4.84922 9.71155 4.97074 9.4682 5.28942 9.4682H7.78839C7.92556 9.4682 8.05654 9.41355 8.15348 9.31763C8.25043 9.22172 8.30405 9.08971 8.30405 8.95254V3.79597C8.30405 3.51132 8.5361 3.28031 8.81971 3.28031H15.0076C15.2912 3.28031 15.5233 3.51132 15.5233 3.79597V8.95254C15.5233 9.08971 15.5779 9.22069 15.6738 9.31763C15.7697 9.41458 15.9018 9.4682 16.0389 9.4682H18.7131C19.0318 9.4682 19.1536 9.71258 19.1825 9.78684C19.2113 9.86212 19.2896 10.123 19.0586 10.3406ZM19.7351 21.3293C19.7351 21.614 19.5041 21.845 19.2195 21.845H4.78106C4.49642 21.845 4.2654 21.614 4.2654 21.3293C4.2654 21.0447 4.49642 20.8137 4.78106 20.8137H19.2195C19.5041 20.8137 19.7351 21.0447 19.7351 21.3293Z" fill="var(--color-1)"/>
</svg>
