<svg viewBox="0 0 687.69 676.08" xmlns="http://www.w3.org/2000/svg" xmlns:xlink="http://www.w3.org/1999/xlink"><clipPath id="a"><path d="m529.89 399.58-6.08-10.49c-14.72-25.38-41.84-41-71.17-41h-211.8c-29.34 0-56.46 15.62-71.17 41l-8.49 14.65c-23.22 40.05-24.78 87.23-13.06 132.02 9.18 35.09 35.98 81.29 76.87 97.86 27.14 11 80.82 42.46 124.41 42.46 52.82 0 103.09-23.4 136.51-51.49 24.41-20.51 47.79-45.74 60.72-81.64 16.42-45.61 7.58-101.44-16.73-143.37z"/></clipPath><clipPath id="b"><path d="m612.4 141.2c-4.55-12.69-15.91-19.32-21.59-17.29-.38.14-.7.3-.96.48-12.63-17.92-28.51-22.25-39.3-22.81-5.39-5.67-10.35-7.18-14.16-2.36 0 0 .82 1.07 2.25 3.23-.3.07-.46.11-.46.11s43.52 130.12 43.71 131.5c6.64 2 10.13-3.49 10.4-13.27 8.1-9.22 17.07-25.49 14.15-50.74.26-.02.54-.08.83-.18 5.68-2.03 9.68-15.98 5.13-28.67z"/></clipPath><filter id="c" filterUnits="userSpaceOnUse"><feOffset dx="0" dy="0"/><feGaussianBlur result="blur" stdDeviation="5"/><feFlood flood-color="#fff" flood-opacity=".75"/><feComposite in2="blur" operator="in"/><feComposite in="SourceGraphic"/></filter><filter id="d" filterUnits="userSpaceOnUse"><feOffset dx="0" dy="0"/><feGaussianBlur result="blur-2" stdDeviation="5"/><feFlood flood-color="#fff" flood-opacity=".75"/><feComposite in2="blur-2" operator="in"/><feComposite in="SourceGraphic"/></filter><clipPath id="e"><path d="m534.72 97.07c-54.77-79.68-187.98-79.68-187.98-79.68s-133.21 0-187.99 79.68c-30.17 43.89-42.07 97.43-46.75 133.23-3.14 23.98 3.49 48.2 18.36 67.27 17.13 21.96 43.42 34.8 71.28 34.8h290.2c27.85 0 54.15-12.84 71.28-34.8 14.87-19.07 21.5-43.29 18.36-67.27-4.69-35.8-16.58-89.34-46.75-133.23z"/></clipPath><path d="m135.95 111.9s-21.67-17.11 3.54-64.41c25.21-47.29 37.86-55.72 20.42-40.28s-22.54 17.96-36.2 47.1-7.86 53.37-.85 63.82c8.83-4.13 13.09-6.23 13.09-6.23z" fill="#27272b"/><ellipse cx="160.2" cy="12.37" fill="#27272b" rx="15.05" ry="8.73" transform="matrix(.6999127 -.71422841 .71422841 .6999127 39.24 118.13)"/><path d="m580.93 230.5-42.75-127.95s42.65-11.67 62.22 42.67c22.44 62.3-19.47 85.28-19.47 85.28z" fill="#f1f0f8"/><path d="m536.39 99.21s33.09 43.97 45.5 134.85c32.72 9.85-24.15-161.87-45.5-134.85z" fill="#4d3491"/><path d="m597.59 145.63c4.55 12.69 4.01 26.26 9.68 24.23s9.68-15.98 5.13-28.67-15.91-19.32-21.59-17.29 2.23 9.04 6.78 21.73z" fill="#66e8e4"/><path d="m112.06 229.32 44.15-127.47s-42.52-12.13-62.69 41.98c-23.12 62.05 18.53 85.49 18.53 85.49z" fill="#f1f0f8"/><path d="m529.89 399.58-6.08-10.49c-14.72-25.38-41.84-41-71.17-41h-211.8c-29.34 0-56.46 15.62-71.17 41l-8.49 14.65c-23.22 40.05-24.78 87.23-13.06 132.02 9.18 35.09 36.02 67.77 76.87 97.86 23.58 17.37 80.82 42.46 124.41 42.46 52.82 0 103.69-23.08 136.51-51.49 29.84-25.83 51.54-53.52 60.72-81.64 16-49.03 7.58-101.44-16.73-143.37z" fill="#f1f0f8"/><g clip-path="url(#a)"><path d="m382.93 336.89s95.23 58.58 81.57 163.5c-13.71 105.27-102.49 184.71-135.72 189.85 160-19.69 244.92-99.69 251.08-156.31 6.15-56.62-4.05-125.56-81.23-186.46-24.62-19.42-115.69-10.58-115.69-10.58z" fill="#ccd0ea"/></g><path d="m218.1 524.85c-1.22-15.42 9.31-36.68-8.3-44.83-9.04-4.18-24.32-5.9-31.32 3.08-2.58 3.31-3.88 7.47-4.12 11.79-2.52 11 3.4 27.09 6.16 36.95 3.26 11.61 14.55 52.43 35.34 41.31 14.17-7.58 3.13-36.89 2.23-48.31z" fill="#fff"/><path d="m240.72 370.29c-9.35-13.34-22.5-8.9-31.87.79-20.83 12.68-42.95 64.49-11.46 69.56 18.16 2.92 23.72-19.2 29.87-31.16 5.64-10.97 22.63-26.09 13.45-39.18z" fill="#fff"/><path d="m537.48 388.53c-13.77-23.24-6.04-53.24 17.24-66.95 41.89-24.67 102.36-58.53 118.84-58.53 25.93 0 15.56 46.67-25.93 97.65-11.46 14.08-22.86 26.54-33.32 37.16-22.48 22.85-60.49 18.25-76.83-9.33z" fill="#f1f0f8"/><path d="m673.55 263.05c-2.59 0-6.27.84-10.79 2.34-.74 18.23-14.49 47.98-40.03 79.37-27.64 33.96-54.51 47.83-75.68 55.42 0 0 8.66 8.21 19.74 10.98 12.8 3.2 27.26 2.07 38.26-5.44 10.64-7.27 26.59-25.37 42.58-45.02 41.49-50.98 51.86-97.65 25.93-97.65z" fill="#ccd0ea"/><path d="m162.14 385.85c16.06-26.19-.06-60.24-30.49-64.42-49.73-6.83-112.16-14.01-124.24-8.99-20.65 8.59 3.29 45.41 53.45 75.65 15.94 9.61 29.71 16.93 41.01 22.43 19.72 9.6 43.49 2.69 54.96-16l5.31-8.66z" fill="#f1f0f8"/><path d="m7.42 312.44c2.06-.86 5.28-1.35 9.38-1.55 6.72 15.48 27.65 36.59 58.53 55.21 33.41 20.14 58.79 31.74 82.02 27.57-11.76 19.18-36.17 26.31-56.37 16.42-11.13-5.45-24.59-12.63-40.11-21.99-50.16-30.25-74.1-67.07-53.45-75.66z" fill="#ccd0ea"/><path d="m84.14 331.11c-4.76-7.56-21.61-12.09-29.54-11.67-4.08.22-6.78 1.62-8.31 3.54-3.74 2.35-3.38 5.38-.66 8.41 1.3 2.7 3.95 5.01 7.59 5.76v-.14c15.48 8.59 42.95 13.22 30.92-5.91z" fill="#fff"/><path d="m644.55 282.54c-3.55-2.32-13.84 2.91-16.77 4.35-4.89 2.4-17.52 10.35-20.15 17.93-2.94 3.97-3.45 7.88 1.4 10.29 7.32 3.64 27.69-12.86 32.11-18.29 2.75-3.39 8.27-11.1 3.41-14.29z" fill="#fff"/><path d="m157.3 99.21s-33.65 43.94-46.07 134.82c-32.72 9.85 24.72-161.85 46.07-134.82z" fill="#4d3491"/><path d="m96.16 143.15c-4.68 12.64-4.29 26.21-9.95 24.12s-9.5-16.08-4.82-28.72 16.12-19.15 21.78-17.05-2.33 9.02-7.01 21.66z" fill="#66e8e4"/><path d="m359.28 427.65c0 7.08-5.74 12.82-12.82 12.82s-12.82-5.74-12.82-12.82 5.74-12.82 12.82-12.82 12.82 5.74 12.82 12.82z" fill="#90f0f1"/><path d="m354.46 417.63c.82 1.69 1.28 3.59 1.28 5.59 0 7.08-5.74 12.82-12.82 12.82-3.03 0-5.81-1.05-8-2.81 2.08 4.28 6.46 7.23 11.54 7.23 7.08 0 12.82-5.74 12.82-12.82 0-4.05-1.88-7.66-4.82-10.01z" fill="#66e8e4"/><path d="m341.35 420.26c-6.04 1.46-3.73 14.07 3.7 7.28 5.9-5.4-.28-8.79-3.7-7.28z" fill="#fff"/><path d="m384.83 454.29c0-4.7-2.41-12.47-6.99-17.13-3.62-3.66-8.41-6.04-13.49-6.8-.87-.13-1.74-.21-2.61-.25-.23 3.73-1.59 6.97-4.13 9.66-2.82 3.01-6.46 4.55-10.8 4.55-2.71 0-5.13-.59-7.28-1.76-1.17 2.14-2.05 4.41-2.54 6.82-.3 1.46-.44 2.94-.49 4.41-.08 1.95 0 3.9 0 5.85v67.56c0 1.42-.78 2.63-1.93 3.26-.11.08-.23.13-.34.17-.11.06-.23.09-.36.13-.09.04-.21.08-.32.09-.25.06-.51.08-.78.08-.08 0-.17 0-.25-.02-1.93-.11-3.47-1.72-3.47-3.71v-3.85c-.04-1.35-.04-2.69-.04-4.04 0-2.03.02-4.05.04-6.06 0-2.03.02-4.04.02-6.06-.02-7.96-.02-15.93-.02-23.89v-24.12c0-2.06-1.67-3.73-3.71-3.73h-16.52c-.11 0-.19.09-.19.21-.04 2.58-.02 5.17-.02 7.75l.04 53.27c0 4.41.28 8.83 1.4 13.11.83 3.13 2.1 6.27 4.15 8.81 5.97 7.45 16.8 10.44 25.86 7.62 4.51-1.4 8.56-4.17 11.54-7.84 1.99-2.46 3.5-5.34 4.4-8.39.57-1.93.95-3.9 1.02-5.87.05-1.21-.01-73.08.02-73.41 0-.09.02-.35.04-.53.21-1.35 1.16-2.44 2.39-2.88.4-.17.83-.25 1.29-.25 1.04 0 1.95.42 2.63 1.1.66.66 1.08 1.59 1.08 2.61v68.01c.06 2.01 1.69 3.62 3.73 3.62h13.81c1.57 0 2.86-1.27 2.86-2.84v-61.4s-.04-3.68-.04-3.86z" fill="#4d3491"/><path d="m92.61 136.53c8.25-10.49.74-14.22-3-7.89s.33 11.29 3 7.89z" fill="#fff"/><path d="m601.22 138.32c-8.13-10.58-.58-14.23 3.09-7.86s-.45 11.29-3.09 7.86z" fill="#fff"/><g clip-path="url(#b)"><path d="m573.46 245.62s-11.32-134.54-59.3-159.42c-47.98-24.87 73.38 3.45 73.38 3.45l71.13 102.18z" fill="#666c98" opacity=".46"/></g><path d="m534.72 97.07c-54.77-79.68-187.98-79.68-187.98-79.68s-133.21 0-187.99 79.68c-30.17 43.89-42.07 97.43-46.75 133.23-3.14 23.98 3.49 48.2 18.36 67.27 17.13 21.96 43.42 34.8 71.28 34.8h290.2c27.85 0 54.15-12.84 71.28-34.8 14.87-19.07 21.5-43.29 18.36-67.27-4.69-35.8-16.58-89.34-46.75-133.23z" fill="#f1f0f8"/><path d="m467.5 113.25c-51.04-38.59-190.48-38.59-241.52 0-55.41 41.9-53.53 141.92-53.53 141.92h348.58s1.88-100.02-53.53-141.92z" fill="#3b3570"/><path d="m173.9 255.18c3.42-32.63 14.74-87.24 52.08-115.47 51.04-38.59 190.48-38.59 241.52 0 37.33 28.23 48.66 82.84 52.08 115.47h1.45s1.88-100.02-53.53-141.92c-51.04-38.59-190.48-38.59-241.52 0-55.41 41.9-53.53 141.92-53.53 141.92h1.46z" fill="#170030"/><g fill="#fff"><path d="m272.24 51.73c-6.07-11.61-33.51-4.96-42.48-.73-7.33 3.46-20.58 11.12-29.04 19.25-6.71 5.34-12.7 11.56-17.9 18.57-4.33 5.82-12.49 17.82-7.26 25.46 5.76 8.41 15.48 1.12 20.31-3.73 12.57-12.63 22.22-26.17 39.26-33.86 8.38-3.78 44.26-11.27 37.11-24.95z"/><g filter="url(#c)"><path d="m290.28 175.21c-2.29 0-4.15-1.84-4.18-4.13 0-.03-.15-5.14-3.23-10.04-3.97-6.32-11-9.52-20.89-9.52h-.2c-21.35.09-24.28 17.98-24.4 18.74-.34 2.28-2.48 3.86-4.76 3.51-2.28-.34-3.86-2.47-3.51-4.76 1.34-8.9 9.88-25.76 32.63-25.86h.24c31.79 0 32.47 27.55 32.47 27.83.03 2.31-1.82 4.2-4.13 4.23-.02 0-.03 0-.05 0z"/><path d="m460.31 175.21c-2.29 0-4.15-1.84-4.18-4.13 0-.03-.15-5.14-3.23-10.04-3.97-6.32-10.99-9.52-20.89-9.52h-.2c-21.35.09-24.28 17.98-24.4 18.74-.34 2.28-2.48 3.86-4.76 3.51-2.28-.34-3.86-2.47-3.51-4.76 1.34-8.9 9.88-25.76 32.63-25.86h.24c31.79 0 32.47 27.55 32.47 27.83.03 2.31-1.82 4.2-4.13 4.23-.02 0-.03 0-.05 0z"/></g><path d="m365.07 212.1c0 13.04-7.52 23.61-16.8 23.61s-16.8-10.57-16.8-23.61 7.52-23.61 16.8-23.61 16.8 10.57 16.8 23.61z" filter="url(#d)"/></g><g clip-path="url(#e)" fill="#ccd0ea"><path d="m498.02-39.03s53.92 204.6 56.14 251.13c1.72 36.18-12.06 72.03-67.46 82s-325.5 32.5-374.49-38.92c-41.09-59.9 1.31 66.73 46.04 82.87 19.44 7.01 379.66-1.11 379.66-1.11l40.62-33.67s23.5-87.84 19.21-91.16-99.72-251.13-99.72-251.13z"/><path d="m346.46 55.75c2.78.15 8.34-.03 10.01-1.36 11.03-8.75 30.24-26.66 40.53-36.28 3.75-3.5.03-7.81-7.7-8.92l-37.96-5.47c-1.46-.21-2.98-.31-4.48-.28 0 11.6-.4 39.28-.4 52.32z"/></g><path d="m343.33 4.76-23.11 5.33c-4.83 1.11-7.19 5.19-4.96 8.58 6.21 9.43 19.72 26.67 26.58 35.3 1.9 2.39 6.51 2.42 8.47.06 7.11-8.58 21.19-25.75 27.82-35.18 2.41-3.43.02-7.66-4.97-8.75l-24.46-5.36c-1.75-.38-3.62-.37-5.36.03z" fill="#4d3491"/><path d="m350.15 5.05 23 5.04c5.19 1.14 7.62 5.17 4.65 9.24-6.12 8.37-20.27 25.94-27.5 34.69-1.45 1.75-3.78 1.75-3.78 1.75l.05-51.32c.78.02 2.62.35 3.58.6z" fill="#3e3268"/></svg>