<svg width="24" height="24" viewBox="0 0 24 24" fill="none" xmlns="http://www.w3.org/2000/svg">
<path d="M19.6465 21.328C19.6465 21.6127 19.4155 21.8437 19.1308 21.8437H4.69341C4.40877 21.8437 4.17775 21.6127 4.17775 21.328C4.17775 21.0434 4.40877 20.8124 4.69341 20.8124H19.1308C19.4155 20.8124 19.6465 21.0434 19.6465 21.328ZM20.1405 10.5621C19.9064 11.151 19.3453 11.5316 18.7121 11.5316H16.7288V16.1725C16.7288 17.0254 16.0347 17.7194 15.1818 17.7194H8.99392C8.14102 17.7194 7.44694 17.0254 7.44694 16.1725V11.5316H5.28838C4.65516 11.5316 4.09411 11.151 3.86 10.5621C3.62589 9.97324 3.7724 9.31217 4.2334 8.87798L10.7028 2.76437C11.4299 2.07854 12.5686 2.07854 13.2957 2.76437L19.7661 8.87798C20.2281 9.31217 20.3736 9.97324 20.1405 10.5621ZM19.0596 9.6278L12.5882 3.51412C12.2602 3.20267 11.7423 3.20267 11.4133 3.51412L4.94293 9.6278C4.71089 9.84644 4.7904 10.1074 4.82031 10.1816C4.84919 10.2569 4.97071 10.5002 5.28939 10.5002H7.96361C8.10077 10.5002 8.23176 10.5549 8.3287 10.6508C8.42564 10.7467 8.47927 10.8787 8.47927 11.0159V16.1725C8.47927 16.4571 8.71131 16.6881 8.99492 16.6881H15.1828C15.4664 16.6881 15.6985 16.4571 15.6985 16.1725V11.0159C15.6985 10.8787 15.7531 10.7478 15.849 10.6508C15.945 10.5539 16.077 10.5002 16.2141 10.5002H18.7131C19.0318 10.5002 19.1536 10.2559 19.1824 10.1816C19.2113 10.1063 19.2895 9.84541 19.0596 9.6278Z" fill="var(--color-1)"/>
</svg>
