<svg width="96" height="96" viewBox="0 0 96 96" fill="none" xmlns="http://www.w3.org/2000/svg">
<path d="M74.5263 15H21.4737C11.3495 15 6 20.3495 6 30.4737V65.8421C6 75.9663 11.3495 81.3158 21.4737 81.3158H74.5263C84.6505 81.3158 90 75.9663 90 65.8421V30.4737C90 20.3495 84.6505 15 74.5263 15ZM21.4737 19.4211H74.5263C82.1703 19.4211 85.5789 22.8297 85.5789 30.4737V37.1053H10.4211V30.4737C10.4211 22.8297 13.8297 19.4211 21.4737 19.4211ZM74.5263 76.8947H21.4737C13.8297 76.8947 10.4211 73.4861 10.4211 65.8421V41.5263H85.5789V65.8421C85.5789 73.4861 82.1703 76.8947 74.5263 76.8947ZM41.3684 61.4211C41.3684 62.6413 40.3781 63.6316 39.1579 63.6316H25.8947C24.6745 63.6316 23.6842 62.6413 23.6842 61.4211C23.6842 60.2008 24.6745 59.2105 25.8947 59.2105H39.1579C40.3781 59.2105 41.3684 60.2008 41.3684 61.4211Z" fill="var(--color-1)"/>
</svg>
